<?xml version="1.0" encoding="utf-8"?>
<!-- Generator: Adobe Illustrator 24.2.1, SVG Export Plug-In . SVG Version: 6.00 Build 0)  -->
<svg version="1.1" id="Layer_1" xmlns="http://www.w3.org/2000/svg" xmlns:xlink="http://www.w3.org/1999/xlink" x="0px" y="0px"
	 viewBox="0 0 537.8 300" style="enable-background:new 0 0 537.8 300;" xml:space="preserve">
<style type="text/css">
	.st0{fill:#3F4545;}
</style>
<g id="b238feff-d08f-4555-9248-4b2364d3705b">
	<g>
		<path class="st0" d="M200,150l-50-50l-50,50l19.5,19.5l0,0l27.2,27.2l3.3,3.3l0,0l0,0l30.5-30.5l0,0L200,150z M161.9,130.8
			c-6.6-6.6-17.3-6.6-23.9,0l-24.2,24.1L109,150l41-41l41,41l-4.9,4.9L161.9,130.8z M142.6,135.3c4.1-4.1,10.7-4.1,14.8,0l24.1,24.1
			l-5,5c-12.9-14.7-35.2-16.2-49.9-3.3c-1.2,1-2.3,2.1-3.3,3.3l-5-5L142.6,135.3z M150,191l-22.1-22.1c3.3-3.9,7.6-6.8,12.4-8.5
			c11.3-4,24-0.6,31.8,8.5L150,191z"/>
		<path class="st0" d="M262.3,159.9l4.3,4.2c-3.6,4.1-8.8,6.4-14.3,6.3c-10.7,0-18.9-8.2-18.9-19.2s8.1-19.2,18.9-19.2
			c5.2-0.1,10.2,2.1,13.8,5.8l-4.3,4.2c-2.4-2.6-5.9-4.1-9.5-4.1c-7.3,0-12.4,6.1-12.4,13.3s5.1,13.3,12.4,13.3
			C256.1,164.5,259.7,162.8,262.3,159.9z M294.7,144.6v25.2h-5.9v-3.3c-1.7,2.6-4.6,4-7.6,3.9c-6.5,0-12.3-5.5-12.3-13.2
			s5.7-13.2,12.3-13.2c3,0,5.9,1.4,7.6,3.9v-3.3H294.7z M288.4,153.4c-1.2-2.1-3.5-3.5-6-3.5c-4.3,0-7,3.1-7,7.3s2.7,7.3,7,7.3
			c2.5-0.1,4.7-1.4,6-3.5V153.4z M323.9,153.5v16.3h-6.4v-14.7c0-3.6-2.2-5.2-5-5.2c-3.3,0-5,3.2-5,3.2v16.6h-6.4v-25.2h6v3.7
			c1.6-2.7,4.4-4.3,7.6-4.3C319.5,143.9,323.9,147.4,323.9,153.5L323.9,153.5z M354.3,169.8h-5.9v-3.3c-1.7,2.6-4.6,4-7.6,3.9
			c-6.5,0-12.3-5.5-12.3-13.2s5.7-13.2,12.3-13.2c2.8-0.1,5.4,1.2,7.1,3.3v-17.7h6.4V169.8z M348,153.4c-1.2-2.2-3.5-3.5-6-3.5
			c-4.3,0-6.9,3.1-6.9,7.3s2.6,7.3,6.9,7.3c2.5,0,4.8-1.4,6-3.5V153.4z M386.7,157.2c0.1,7.4-5.8,13.5-13.2,13.7
			c-7.4,0.1-13.5-5.8-13.7-13.2c-0.1-7.4,5.8-13.5,13.2-13.7c0.1,0,0.1,0,0.2,0c7.3-0.1,13.3,5.7,13.5,13.1
			C386.7,157.1,386.7,157.1,386.7,157.2L386.7,157.2z M380.2,157.2c0-3.9-2.7-7.3-7-7.3s-7,3.4-7,7.3s2.7,7.3,7,7.3
			S380.2,161.1,380.2,157.2L380.2,157.2z M391.3,160.9v-16.3h6.4v14.6c0,3.7,1.8,5.3,5,5.3c3.3,0,5-3.1,5-3.1v-16.8h6.4v25.2h-6
			v-3.7c-2.6,4.3-8.2,5.6-12.5,3C392.8,167.3,391.2,164.2,391.3,160.9L391.3,160.9z M437.8,144.7l-2.2,5.7c-1-0.4-2-0.6-3-0.6
			c-2.3,0.1-4.5,1.4-5.6,3.4v16.5h-6.4v-25.2h6.1v3.7c0,0,2.2-4.3,6.9-4.3C434.9,144,436.4,144.2,437.8,144.7L437.8,144.7z"/>
	</g>
</g>
</svg>
