<svg xmlns="http://www.w3.org/2000/svg" version="1.1" xmlns:xlink="http://www.w3.org/1999/xlink" xmlns:svgjs="http://svgjs.dev/svgjs" width="1000" height="1000" viewBox="0 0 1000 1000"><g transform="matrix(1,0,0,1,-0.14221556886212738,-0.14221556886229791)"><svg viewBox="0 0 334 334" data-background-color="#ffffff" preserveAspectRatio="xMidYMid meet" height="1000" width="1000" xmlns="http://www.w3.org/2000/svg" xmlns:xlink="http://www.w3.org/1999/xlink"><g id="tight-bounds" transform="matrix(1,0,0,1,0.04749999999998522,0.04750000000001364)"><svg viewBox="0 0 333.90454557049503 333.90454557049503" height="333.90454557049503" width="333.90454557049503"><g><svg></svg></g><g><svg viewBox="0 0 333.90454557049503 333.90454557049503" height="333.90454557049503" width="333.90454557049503"><g><path d="M0 166.952c0-92.205 74.747-166.952 166.952-166.952 92.205 0 166.952 74.747 166.953 166.952 0 92.205-74.747 166.952-166.953 166.953-92.205 0-166.952-74.747-166.952-166.953zM166.952 316.63c82.665 0 149.677-67.013 149.678-149.678 0-82.665-67.013-149.677-149.678-149.677-82.665 0-149.677 67.013-149.677 149.677 0 82.665 67.013 149.677 149.677 149.678z" data-fill-palette-color="tertiary" fill="#915eff" stroke="transparent"></path><ellipse rx="160.27418187383762" ry="160.27418187383762" cx="166.95227278524752" cy="166.95227278524752" fill="#915eff" stroke="transparent" stroke-width="0" fill-opacity="1" data-fill-palette-color="tertiary"></ellipse></g><g transform="matrix(1,0,0,1,74.4290030140569,71.17305217166896)"><svg viewBox="0 0 185.04653954238123 191.55844122715712" height="191.55844122715712" width="185.04653954238123"><g><svg viewBox="0 0 185.04653954238123 191.55844122715712" height="191.55844122715712" width="185.04653954238123"><g><svg viewBox="0 0 185.04653954238123 191.55844122715712" height="191.55844122715712" width="185.04653954238123"><g><svg viewBox="0 0 185.04653954238123 191.55844122715712" height="191.55844122715712" width="185.04653954238123"><g id="textblocktransform"><svg viewBox="0 0 185.04653954238123 191.55844122715712" height="191.55844122715712" width="185.04653954238123" id="textblock"><g><svg viewBox="0 0 185.04653954238123 191.55844122715712" height="191.55844122715712" width="185.04653954238123"><g transform="matrix(1,0,0,1,0,0)"><svg width="185.04653954238123" viewBox="0.4 -34.3 34.1 35.3" height="191.55844122715712" data-palette-color="#ffffff"><path d="M17.35-34.3L17.35-34.3Q24.8-34.3 29.65-29.25 34.5-24.2 34.5-16.15L34.5-16.15Q34.5-8.35 29.85-3.68 25.2 1 17.7 1L17.7 1Q10 1 5.2-3.8 0.4-8.6 0.4-16.4L0.4-16.4Q0.4-24.25 5.18-29.28 9.95-34.3 17.35-34.3ZM14.15-28.4L14.15-28.4Q12.9-27.15 12.13-24.3 11.35-21.45 11.35-17.5L11.35-17.5Q11.35-11.35 13.3-7.8 15.25-4.25 18.6-4.25L18.6-4.25Q19.45-4.25 20.45-4.65L20.45-4.65Q21.85-6.15 22.7-9.22 23.55-12.3 23.55-16.05L23.55-16.05Q23.55-21.45 21.8-25.2 20.05-28.95 16.7-28.95L16.7-28.95Q15.5-28.95 14.15-28.4Z" opacity="1" transform="matrix(1,0,0,1,0,0)" fill="#ffffff" class="wordmark-text-0" data-fill-palette-color="quaternary" id="text-0"></path></svg></g></svg></g></svg></g></svg></g><g></g></svg></g></svg></g></svg></g></svg></g><defs></defs></svg><rect width="333.90454557049503" height="333.90454557049503" fill="none" stroke="none" visibility="hidden"></rect></g></svg></g></svg>